<?xml version="1.0" encoding="utf-8"?>
<!-- Generator: Adobe Illustrator 16.0.0, SVG Export Plug-In . SVG Version: 6.00 Build 0)  -->
<!DOCTYPE svg PUBLIC "-//W3C//DTD SVG 1.1//EN" "http://www.w3.org/Graphics/SVG/1.1/DTD/svg11.dtd">
<svg version="1.1" id="Layer_1" xmlns="http://www.w3.org/2000/svg" xmlns:xlink="http://www.w3.org/1999/xlink" x="0px" y="0px"
	 width="540px" height="60px" viewBox="0 0 540 60" enable-background="new 0 0 540 60" xml:space="preserve">
<g id="polyline">
	<path fill="#464646" d="M18,36v6h6v-6H18z M22,40h-2v-2h2V40z"/>
	<path fill="#464646" d="M36,18v6h6v-6H36z M40,22h-2v-2h2V22z"/>
	<path fill="#464646" d="M23.142,39.145l-2.285-2.289l16-15.999l2.285,2.285L23.142,39.145z"/>
</g>
<path id="polygon" fill="#464646" d="M100,24.565l-2.096,14.83L83.07,42L76,28.773L86.463,18L100,24.565z"/>
<path id="rectangle" fill="#464646" d="M140,20h20v20h-20V20z"/>
<path id="circle" fill="#464646" d="M221,30c0,6.078-4.926,11-11,11s-11-4.922-11-11c0-6.074,4.926-11,11-11S221,23.926,221,30z"/>
<path id="marker" fill="#464646" d="M270,19c-4.971,0-9,4.029-9,9c0,4.971,5.001,12,9,14c4.001-2,9-9.029,9-14
	C279,23.029,274.971,19,270,19z M270,31.5c-2.483,0-4.5-2.014-4.5-4.5c0-2.484,2.017-4.5,4.5-4.5c2.485,0,4.5,2.016,4.5,4.5
	C274.5,29.486,272.485,31.5,270,31.5z"/>
<g id="remove">
	<path fill="#464646" d="M381,42h18V24h-18V42z M395,26h2v14h-2V26z M391,26h2v14h-2V26z M387,26h2v14h-2V26z M383,26h2v14h-2V26z"
		/>
	<path fill="#464646" d="M395,20v-4h-10v4h-6v2h22v-2H395z M393,20h-6v-2h6V20z"/>
</g>
<g id="remove_1_">
	<path fill="#BBBBBB" d="M501,42h18V24h-18V42z M515,26h2v14h-2V26z M511,26h2v14h-2V26z M507,26h2v14h-2V26z M503,26h2v14h-2V26z"
		/>
	<path fill="#BBBBBB" d="M515,20v-4h-10v4h-6v2h22v-2H515z M513,20h-6v-2h6V20z"/>
</g>
<g>
	<path fill="#464646" d="M342.046,24.519l-1.103,1.104l-6.619-6.618l1.103-1.104c1.219-1.219,3.194-1.219,4.413,0l2.206,2.207
		C343.263,21.325,343.263,23.3,342.046,24.519z M326.602,37.754c-0.305,0.305-0.305,0.798,0,1.104s0.798,0.306,1.103,0
		l12.135-12.132l-1.104-1.104L326.602,37.754z M321.086,32.239c-0.305,0.305-0.305,0.798,0,1.104c0.305,0.305,0.799,0.305,1.104,0
		l12.135-12.133l-1.103-1.103L321.086,32.239z M335.426,22.312l-12.134,12.133c-0.609,0.608-0.608,1.597,0,2.206
		c0.609,0.609,1.597,0.612,2.207-0.002l12.134-12.131L335.426,22.312z M325.496,39.957c-0.373-0.373-0.553-0.848-0.619-1.335
		c-0.159,0.024-0.319,0.048-0.481,0.048c-0.834,0-1.617-0.326-2.206-0.916c-0.59-0.591-0.914-1.372-0.914-2.205
		c0-0.153,0.022-0.301,0.044-0.448c-0.504-0.068-0.971-0.29-1.336-0.655c-0.035-0.035-0.047-0.082-0.079-0.12L318,41.944l7.6-1.902
		C325.566,40.012,325.528,39.989,325.496,39.957z"/>
</g>
<g>
	<path fill="#BBBBBB" d="M462.421,24.519l-1.103,1.104l-6.619-6.618l1.103-1.104c1.219-1.219,3.194-1.219,4.413,0l2.206,2.207
		C463.638,21.325,463.638,23.3,462.421,24.519z M446.977,37.754c-0.305,0.305-0.305,0.798,0,1.104s0.798,0.306,1.103,0
		l12.135-12.132l-1.104-1.104L446.977,37.754z M441.461,32.239c-0.305,0.305-0.305,0.798,0,1.104c0.305,0.305,0.799,0.305,1.104,0
		l12.135-12.133l-1.103-1.103L441.461,32.239z M455.801,22.312l-12.134,12.133c-0.609,0.608-0.608,1.597,0,2.206
		c0.609,0.609,1.597,0.612,2.207-0.002l12.134-12.131L455.801,22.312z M445.871,39.957c-0.373-0.373-0.553-0.848-0.619-1.335
		c-0.159,0.024-0.319,0.048-0.481,0.048c-0.834,0-1.617-0.326-2.206-0.916c-0.59-0.591-0.914-1.372-0.914-2.205
		c0-0.153,0.022-0.301,0.044-0.448c-0.504-0.068-0.971-0.29-1.336-0.655c-0.035-0.035-0.047-0.082-0.079-0.12l-1.904,7.619
		l7.6-1.902C445.941,40.012,445.903,39.989,445.871,39.957z"/>
</g>
</svg>
